REM DIRINDEX 1\2\3,1\2\4,1\2\5,1\2\6
REM DIRNAME cjc157,folder01,folder02,folder03,folder04,folder05
TITLE ""
FILE "017 017.mp3" MP3
  TRACK 01 AUDIO
    TITLE "0:"
    INDEX 01 00:00:00
  TRACK 02 AUDIO
    TITLE "3:cjc157_0599"
    INDEX 01 00:00:09
  TRACK 03 AUDIO
    TITLE "0:"
    INDEX 01 00:01:40
  TRACK 04 AUDIO
    TITLE "4:cjc157_0600"
    INDEX 01 00:02:10
  TRACK 05 AUDIO
    TITLE "0:"
    INDEX 01 00:05:01
  TRACK 06 AUDIO
    TITLE "5:cjc157_0601"
    INDEX 01 00:05:42
  TRACK 07 AUDIO
    TITLE "0:"
    INDEX 01 00:08:38
  TRACK 08 AUDIO
    TITLE "5:cjc157_0602"
    INDEX 01 00:09:10
  TRACK 09 AUDIO
    TITLE "0:"
    INDEX 01 00:11:09
  TRACK 10 AUDIO
    TITLE "5:cjc157_0603"
    INDEX 01 00:11:54
  TRACK 11 AUDIO
    TITLE "0:"
    INDEX 01 00:13:37
  TRACK 12 AUDIO
    TITLE "3:cjc157_0604"
    INDEX 01 00:14:06
  TRACK 13 AUDIO
    TITLE "0:"
    INDEX 01 00:15:50
  TRACK 14 AUDIO
    TITLE "4:cjc157_0605"
    INDEX 01 00:16:22
  TRACK 15 AUDIO
    TITLE "0:"
    INDEX 01 00:17:37
  TRACK 16 AUDIO
    TITLE "5:cjc157_0606"
    INDEX 01 00:18:07
  TRACK 17 AUDIO
    TITLE "0:"
    INDEX 01 00:21:23
  TRACK 18 AUDIO
    TITLE "3:cjc157_0607"
    INDEX 01 00:21:68
  TRACK 19 AUDIO
    TITLE "0:"
    INDEX 01 00:23:12
  TRACK 20 AUDIO
    TITLE "4:cjc157_0608"
    INDEX 01 00:23:63
  TRACK 21 AUDIO
    TITLE "0:"
    INDEX 01 00:24:69
  TRACK 22 AUDIO
    TITLE "5:cjc157_0609"
    INDEX 01 00:25:37
  TRACK 23 AUDIO
    TITLE "0:"
    INDEX 01 00:28:55
  TRACK 24 AUDIO
    TITLE "3:cjc157_0610"
    INDEX 01 00:29:27
  TRACK 25 AUDIO
    TITLE "0:"
    INDEX 01 00:30:46
  TRACK 26 AUDIO
    TITLE "4:cjc157_0611"
    INDEX 01 00:31:18
  TRACK 27 AUDIO
    TITLE "0:"
    INDEX 01 00:32:21
  TRACK 28 AUDIO
    TITLE "5:cjc157_0612"
    INDEX 01 00:32:62
  TRACK 29 AUDIO
    TITLE "0:"
    INDEX 01 00:35:29
  TRACK 30 AUDIO
    TITLE "5:cjc157_0613"
    INDEX 01 00:36:01
  TRACK 31 AUDIO
    TITLE "0:"
    INDEX 01 00:38:57
  TRACK 32 AUDIO
    TITLE "5:cjc157_0614"
    INDEX 01 00:39:23
  TRACK 33 AUDIO
    TITLE "0:"
    INDEX 01 00:43:27
  TRACK 34 AUDIO
    TITLE "3:cjc157_0615"
    INDEX 01 00:43:70
  TRACK 35 AUDIO
    TITLE "0:"
    INDEX 01 00:45:33
  TRACK 36 AUDIO
    TITLE "4:cjc157_0616"
    INDEX 01 00:46:06
  TRACK 37 AUDIO
    TITLE "0:"
    INDEX 01 00:47:15
  TRACK 38 AUDIO
    TITLE "5:cjc157_0617"
    INDEX 01 00:47:62
  TRACK 39 AUDIO
    TITLE "0:"
    INDEX 01 00:50:17
  TRACK 40 AUDIO
    TITLE "5:cjc157_0618"
    INDEX 01 00:50:58
  TRACK 41 AUDIO
    TITLE "0:"
    INDEX 01 00:53:06
  TRACK 42 AUDIO
    TITLE "3:cjc157_0619"
    INDEX 01 00:53:53
  TRACK 43 AUDIO
    TITLE "0:"
    INDEX 01 00:55:22
  TRACK 44 AUDIO
    TITLE "4:cjc157_0620"
    INDEX 01 00:55:69
  TRACK 45 AUDIO
    TITLE "0:"
    INDEX 01 00:57:09
  TRACK 46 AUDIO
    TITLE "5:cjc157_0621"
    INDEX 01 00:57:50
  TRACK 47 AUDIO
    TITLE "0:"
    INDEX 01 00:59:69
  TRACK 48 AUDIO
    TITLE "5:cjc157_0622"
    INDEX 01 01:00:37
  TRACK 49 AUDIO
    TITLE "0:"
    INDEX 01 01:02:01
  TRACK 50 AUDIO
    TITLE "5:cjc157_0623"
    INDEX 01 01:02:42
  TRACK 51 AUDIO
    TITLE "0:"
    INDEX 01 01:05:38
  TRACK 52 AUDIO
    TITLE "3:cjc157_0624"
    INDEX 01 01:06:12
  TRACK 53 AUDIO
    TITLE "0:"
    INDEX 01 01:07:35
  TRACK 54 AUDIO
    TITLE "4:cjc157_0625"
    INDEX 01 01:08:01
  TRACK 55 AUDIO
    TITLE "0:"
    INDEX 01 01:09:10
  TRACK 56 AUDIO
    TITLE "5:cjc157_0626"
    INDEX 01 01:09:59
  TRACK 57 AUDIO
    TITLE "0:"
    INDEX 01 01:11:39
  TRACK 58 AUDIO
    TITLE "3:cjc157_0627"
    INDEX 01 01:12:07
  TRACK 59 AUDIO
    TITLE "0:"
    INDEX 01 01:13:38
  TRACK 60 AUDIO
    TITLE "4:cjc157_0628"
    INDEX 01 01:14:12
  TRACK 61 AUDIO
    TITLE "0:"
    INDEX 01 01:15:17
  TRACK 62 AUDIO
    TITLE "5:cjc157_0629"
    INDEX 01 01:15:66
  TRACK 63 AUDIO
    TITLE "0:"
    INDEX 01 01:18:70
  TRACK 64 AUDIO
    TITLE "3:cjc157_0630"
    INDEX 01 01:19:38
  TRACK 65 AUDIO
    TITLE "0:"
    INDEX 01 01:21:00
  TRACK 66 AUDIO
    TITLE "4:cjc157_0631"
    INDEX 01 01:21:47
  TRACK 67 AUDIO
    TITLE "0:"
    INDEX 01 01:22:68
  TRACK 68 AUDIO
    TITLE "5:cjc157_0632"
    INDEX 01 01:23:38
  TRACK 69 AUDIO
    TITLE "0:"
    INDEX 01 01:25:60
  TRACK 70 AUDIO
    TITLE "3:cjc157_0633"
    INDEX 01 01:26:32
  TRACK 71 AUDIO
    TITLE "0:"
    INDEX 01 01:27:73
  TRACK 72 AUDIO
    TITLE "4:cjc157_0634"
    INDEX 01 01:28:43
  TRACK 73 AUDIO
    TITLE "0:"
    INDEX 01 01:29:56
  TRACK 74 AUDIO
    TITLE "5:cjc157_0635"
    INDEX 01 01:30:22
  TRACK 75 AUDIO
    TITLE "0:"
    INDEX 01 01:32:08
  TRACK 76 AUDIO
    TITLE "5:cjc157_0636"
    INDEX 01 01:32:53
  TRACK 77 AUDIO
    TITLE "0:"
    INDEX 01 01:35:12
  TRACK 78 AUDIO
    TITLE "5:cjc157_0637"
    INDEX 01 01:35:53
  TRACK 79 AUDIO
    TITLE "0:"
    INDEX 01 01:39:02
